<svg width="21" height="29" viewBox="0 0 21 29" fill="none" xmlns="http://www.w3.org/2000/svg">
<path d="M8.5 13.004H12.5C14.3565 13.004 16.137 13.7415 17.4497 15.0543C18.7625 16.367 19.5 18.1475 19.5 20.004V25.004C19.5 25.5344 19.2893 26.0431 18.9142 26.4182C18.5391 26.7933 18.0304 27.004 17.5 27.004H3.5C2.96957 27.004 2.46086 26.7933 2.08579 26.4182C1.71071 26.0431 1.5 25.5344 1.5 25.004V20.004C1.5 18.1475 2.2375 16.367 3.55025 15.0543C4.86301 13.7415 6.64348 13.004 8.5 13.004Z" stroke="#052333" stroke-width="2"/>
<path d="M10.5 9.604C12.7091 9.604 14.5 7.81314 14.5 5.604C14.5 3.39486 12.7091 1.604 10.5 1.604C8.29086 1.604 6.5 3.39486 6.5 5.604C6.5 7.81314 8.29086 9.604 10.5 9.604Z" stroke="#052333" stroke-width="2"/>
</svg>
