<svg width="21" height="29" viewBox="0 0 21 29" fill="none" xmlns="http://www.w3.org/2000/svg">
<path d="M8.5 12.004H12.5C14.6217 12.004 16.6566 12.8469 18.1569 14.3471C19.6571 15.8474 20.5 17.8823 20.5 20.004V25.004C20.5 25.7996 20.1839 26.5627 19.6213 27.1253C19.0587 27.6879 18.2956 28.004 17.5 28.004H3.5C2.70435 28.004 1.94129 27.6879 1.37868 27.1253C0.81607 26.5627 0.5 25.7996 0.5 25.004L0.5 20.004C0.5 17.8823 1.34285 15.8474 2.84315 14.3471C4.34344 12.8469 6.37827 12.004 8.5 12.004Z" fill="#FF6C40"/>
<path d="M8.5 13.004H12.5C14.3565 13.004 16.137 13.7415 17.4497 15.0543C18.7625 16.367 19.5 18.1475 19.5 20.004V25.004C19.5 25.5344 19.2893 26.0431 18.9142 26.4182C18.5391 26.7933 18.0304 27.004 17.5 27.004H3.5C2.96957 27.004 2.46086 26.7933 2.08579 26.4182C1.71071 26.0431 1.5 25.5344 1.5 25.004V20.004C1.5 18.1475 2.2375 16.367 3.55025 15.0543C4.86301 13.7415 6.64348 13.004 8.5 13.004Z" fill="#FF6C40" stroke="#FF6C40" stroke-width="2"/>
<path d="M10.5 10.604C13.2614 10.604 15.5 8.36543 15.5 5.604C15.5 2.84258 13.2614 0.604004 10.5 0.604004C7.73858 0.604004 5.5 2.84258 5.5 5.604C5.5 8.36543 7.73858 10.604 10.5 10.604Z" fill="#FF6C40"/>
<path d="M10.5 9.604C12.7091 9.604 14.5 7.81314 14.5 5.604C14.5 3.39486 12.7091 1.604 10.5 1.604C8.29086 1.604 6.5 3.39486 6.5 5.604C6.5 7.81314 8.29086 9.604 10.5 9.604Z" fill="#FF6C40" stroke="#FF6C40" stroke-width="2"/>
</svg>
