<svg width="23" height="31" viewBox="0 0 23 31" fill="none" xmlns="http://www.w3.org/2000/svg">
<path d="M11.4999 29.2545C8.48624 29.2545 5.79166 28.2132 3.91252 26.3224C2.07489 24.4733 1.10918 21.9156 1.11835 18.9232C1.37224 16.3106 2.42989 14.0919 4.26238 12.3282C4.68116 11.9252 5.09576 11.5919 5.4717 11.3226C5.443 11.7934 5.42221 12.32 5.42044 12.8708C5.41175 15.5757 5.84628 17.3968 6.74887 18.4383C7.29599 19.0696 8.0167 19.4035 8.83307 19.4037C8.83282 19.4037 8.83333 19.4037 8.83307 19.4037C9.35264 19.4037 9.91619 19.2665 10.5066 18.9959L10.6239 18.9422L10.7237 18.8604C11.8325 17.952 12.32 16.9147 12.214 15.6892C12.1284 14.6985 11.6567 13.7243 11.1573 12.6929C10.5562 11.4512 9.87529 10.0448 9.76225 8.38075C9.76468 6.20706 10.7624 3.95329 11.511 2.56769C12.4442 4.00533 14.1097 6.3852 16.4798 9.07509C20.1632 13.2555 21.8178 15.665 21.8814 18.8882C21.9094 21.6651 20.8739 24.2565 18.9653 26.1853C17.0068 28.1645 14.3555 29.2545 11.4999 29.2545Z" fill="white"/>
<path d="M11.6581 4.57057C11.1717 5.73816 10.7712 7.08935 10.7624 8.34749C10.8693 9.80301 11.4732 11.0504 12.0574 12.2571C12.5981 13.3738 13.1088 14.4286 13.2103 15.6031C13.3449 17.1602 12.7216 18.5163 11.3575 19.6339L10.9232 19.905C10.2012 20.2359 9.49804 20.4037 8.83334 20.4037C7.71827 20.4037 6.73625 19.9508 5.99343 19.0939C5.0155 17.9657 4.50162 16.1629 4.42923 13.5961C3.10604 15.0835 2.32973 16.8887 2.11829 18.9732C2.1201 21.6743 2.98482 23.9702 4.62182 25.6175C6.31184 27.318 8.75453 28.2545 11.4999 28.2545C14.0864 28.2545 16.4852 27.2699 18.2545 25.4819C19.9728 23.7454 20.9056 21.4094 20.8815 18.9032C20.8223 15.9958 19.2434 13.7242 15.7295 9.73619C14.0042 7.77811 12.6429 5.97644 11.6581 4.57057ZM11.4999 0.644745C11.4999 0.644745 13.4758 4.15308 17.2301 8.414C20.9844 12.6749 22.8127 15.319 22.8813 18.8732C22.9494 25.3462 17.7857 30.2545 11.4999 30.2545C5.21417 30.2545 0.0740123 26.0455 0.118574 18.8732C0.775043 11.8616 6.65132 9.4821 6.65132 9.4821C6.65132 9.4821 5.37233 18.4037 8.83335 18.4037C9.19757 18.4037 9.61374 18.3051 10.09 18.0868C13.1685 15.5646 9.05824 13.0644 8.76228 8.414C8.75045 4.58729 11.4999 0.644745 11.4999 0.644745Z" fill="#052333"/>
<path d="M9.93701 25.016C9.93701 25.016 13.226 25.435 15.304 23.554C15.9028 23.0386 16.3909 22.4072 16.7388 21.6979C17.0867 20.9885 17.2871 20.216 17.3279 19.427" fill="white"/>
<path d="M9.93701 25.016C9.93701 25.016 13.226 25.435 15.304 23.554C15.9028 23.0386 16.3909 22.4072 16.7388 21.6979C17.0867 20.9885 17.2871 20.216 17.3279 19.427" stroke="#052333" stroke-width="2" stroke-linecap="round"/>
</svg>
