<svg width="23" height="31" viewBox="0 0 23 31" fill="none" xmlns="http://www.w3.org/2000/svg">
<path d="M11.4999 29.0046C8.48624 29.0046 5.79166 27.9632 3.91252 26.0724C2.07489 24.2233 1.10918 21.6656 1.11835 18.6732C1.37224 16.0607 2.42989 13.8419 4.26238 12.0782C4.68116 11.6752 5.09576 11.3419 5.4717 11.0726C5.443 11.5434 5.42221 12.0701 5.42044 12.6208C5.41175 15.3257 5.84628 17.1468 6.74887 18.1883C7.29599 18.8197 8.0167 19.1535 8.83307 19.1537C8.83282 19.1537 8.83333 19.1537 8.83307 19.1537C9.35264 19.1537 9.91619 19.0165 10.5066 18.7459L10.6239 18.6922L10.7237 18.6104C11.8325 17.702 12.32 16.6647 12.214 15.4392C12.1284 14.4485 11.6567 13.4743 11.1573 12.4429C10.5562 11.2012 9.87529 9.7948 9.76225 8.13076C9.76468 5.95707 10.7624 3.7033 11.511 2.3177C12.4442 3.75535 14.1097 6.13522 16.4798 8.82511C20.1632 13.0055 21.8178 15.415 21.8814 18.6382C21.9094 21.4151 20.8739 24.0065 18.9653 25.9353C17.0068 27.9145 14.3555 29.0046 11.4999 29.0046Z" fill="#FF6C40"/>
<path d="M11.6581 4.32059C11.1717 5.48817 10.7712 6.83937 10.7624 8.0975C10.8693 9.55302 11.4732 10.8004 12.0574 12.0071C12.5981 13.1238 13.1088 14.1786 13.2103 15.3531C13.3449 16.9102 12.7216 18.2663 11.3575 19.3839L10.9232 19.655C10.2012 19.9859 9.49804 20.1537 8.83334 20.1537C7.71827 20.1537 6.73625 19.7008 5.99343 18.8439C5.0155 17.7157 4.50162 15.9129 4.42923 13.3462C3.10604 14.8335 2.32973 16.6387 2.11829 18.7233C2.1201 21.4243 2.98482 23.7203 4.62182 25.3675C6.31184 27.068 8.75453 28.0046 11.4999 28.0046C14.0864 28.0046 16.4852 27.0199 18.2545 25.232C19.9728 23.4954 20.9056 21.1595 20.8815 18.6532C20.8223 15.7458 19.2434 13.4742 15.7295 9.4862C14.0042 7.52813 12.6429 5.72645 11.6581 4.32059ZM11.4999 0.39476C11.4999 0.39476 13.4758 3.9031 17.2301 8.16401C20.9844 12.4249 22.8127 15.069 22.8813 18.6232C22.9494 25.0962 17.7857 30.0046 11.4999 30.0046C5.21417 30.0046 0.0740123 25.7955 0.118574 18.6232C0.775043 11.6116 6.65132 9.23211 6.65132 9.23211C6.65132 9.23211 5.37233 18.1537 8.83335 18.1537C9.19757 18.1537 9.61374 18.0551 10.09 17.8369C13.1685 15.3146 9.05824 12.8144 8.76228 8.16401C8.75045 4.33731 11.4999 0.39476 11.4999 0.39476Z" fill="#FF6C40"/>
<path d="M9.93701 24.766C9.93701 24.766 13.226 25.185 15.304 23.304C15.9028 22.7887 16.3909 22.1572 16.7388 21.4479C17.0867 20.7385 17.2871 19.966 17.3279 19.177" fill="#FF6C40"/>
<path d="M9.93701 24.766C9.93701 24.766 13.226 25.185 15.304 23.304C15.9028 22.7887 16.3909 22.1572 16.7388 21.4479C17.0867 20.7385 17.2871 19.966 17.3279 19.177" stroke="white" stroke-width="2" stroke-linecap="round"/>
</svg>
