<svg width="28" height="28" viewBox="0 0 28 28" fill="none" xmlns="http://www.w3.org/2000/svg">
<path d="M14 27.604C21.4558 27.604 27.5 21.5598 27.5 14.104C27.5 6.64816 21.4558 0.604004 14 0.604004C6.54416 0.604004 0.5 6.64816 0.5 14.104C0.5 21.5598 6.54416 27.604 14 27.604Z" fill="white"/>
<path d="M14 26.604C20.9036 26.604 26.5 21.0076 26.5 14.104C26.5 7.20044 20.9036 1.604 14 1.604C7.09644 1.604 1.5 7.20044 1.5 14.104C1.5 21.0076 7.09644 26.604 14 26.604Z" stroke="#052333" stroke-width="2"/>
<path d="M14 22.604C18.6944 22.604 22.5 18.7984 22.5 14.104C22.5 9.40958 18.6944 5.604 14 5.604C9.30558 5.604 5.5 9.40958 5.5 14.104C5.5 18.7984 9.30558 22.604 14 22.604Z" fill="white"/>
<path d="M14 21.604C18.1421 21.604 21.5 18.2461 21.5 14.104C21.5 9.96187 18.1421 6.604 14 6.604C9.85786 6.604 6.5 9.96187 6.5 14.104C6.5 18.2461 9.85786 21.604 14 21.604Z" stroke="#052333" stroke-width="2"/>
<path d="M14 16.604C15.3807 16.604 16.5 15.4847 16.5 14.104C16.5 12.7233 15.3807 11.604 14 11.604C12.6193 11.604 11.5 12.7233 11.5 14.104C11.5 15.4847 12.6193 16.604 14 16.604Z" fill="white"/>
<path d="M14 15.604C14.8284 15.604 15.5 14.9324 15.5 14.104C15.5 13.2756 14.8284 12.604 14 12.604C13.1716 12.604 12.5 13.2756 12.5 14.104C12.5 14.9324 13.1716 15.604 14 15.604Z" stroke="#052333" stroke-width="2"/>
<path d="M14 14.135L26.407 2.10501" stroke="#052333" stroke-width="2" stroke-linecap="round"/>
</svg>
