<svg width="28" height="28" viewBox="0 0 28 28" fill="none" xmlns="http://www.w3.org/2000/svg">
<path d="M14 27.104C21.4558 27.104 27.5 21.0598 27.5 13.604C27.5 6.14816 21.4558 0.104004 14 0.104004C6.54416 0.104004 0.5 6.14816 0.5 13.604C0.5 21.0598 6.54416 27.104 14 27.104Z" fill="white"/>
<path d="M14 26.104C20.9036 26.104 26.5 20.5076 26.5 13.604C26.5 6.70044 20.9036 1.104 14 1.104C7.09644 1.104 1.5 6.70044 1.5 13.604C1.5 20.5076 7.09644 26.104 14 26.104Z" stroke="#FF6C40" stroke-width="2"/>
<path d="M14 22.104C18.6944 22.104 22.5 18.2984 22.5 13.604C22.5 8.90958 18.6944 5.104 14 5.104C9.30558 5.104 5.5 8.90958 5.5 13.604C5.5 18.2984 9.30558 22.104 14 22.104Z" fill="white"/>
<path d="M14 21.104C18.1421 21.104 21.5 17.7461 21.5 13.604C21.5 9.46187 18.1421 6.104 14 6.104C9.85786 6.104 6.5 9.46187 6.5 13.604C6.5 17.7461 9.85786 21.104 14 21.104Z" stroke="#FF6C40" stroke-width="2"/>
<path d="M14 16.104C15.3807 16.104 16.5 14.9847 16.5 13.604C16.5 12.2233 15.3807 11.104 14 11.104C12.6193 11.104 11.5 12.2233 11.5 13.604C11.5 14.9847 12.6193 16.104 14 16.104Z" fill="white"/>
<path d="M14 15.104C14.8284 15.104 15.5 14.4324 15.5 13.604C15.5 12.7756 14.8284 12.104 14 12.104C13.1716 12.104 12.5 12.7756 12.5 13.604C12.5 14.4324 13.1716 15.104 14 15.104Z" stroke="#FF6C40" stroke-width="2"/>
<path d="M14 13.635L26.407 1.60501" stroke="#FF6C40" stroke-width="2" stroke-linecap="round"/>
</svg>
