<svg width="20" height="28" viewBox="0 0 20 28" fill="none" xmlns="http://www.w3.org/2000/svg">
<path d="M16.5 8.30499H3.5C1.84315 8.30499 0.5 9.64813 0.5 11.305V24.305C0.5 25.9618 1.84315 27.305 3.5 27.305H16.5C18.1569 27.305 19.5 25.9618 19.5 24.305V11.305C19.5 9.64813 18.1569 8.30499 16.5 8.30499Z" fill="#FF6C40"/>
<path d="M16.5 9.30499H3.5C2.39543 9.30499 1.5 10.2004 1.5 11.305V24.305C1.5 25.4096 2.39543 26.305 3.5 26.305H16.5C17.6046 26.305 18.5 25.4096 18.5 24.305V11.305C18.5 10.2004 17.6046 9.30499 16.5 9.30499Z" fill="#FF6C40" stroke="#FF6C40" stroke-width="2"/>
<path d="M4 5.57998H16H4Z" fill="#FF6C40"/>
<path d="M4 5.57998H16" stroke="#FF6C40" stroke-width="2" stroke-linecap="round"/>
<path d="M6 1.85498H14H6Z" fill="#FF6C40"/>
<path d="M6 1.85498H14" stroke="#FF6C40" stroke-width="2" stroke-linecap="round"/>
</svg>
